<?xml version="1.0" encoding="UTF-8" standalone="no"?>
<svg
   xmlns:dc="http://purl.org/dc/elements/1.1/"
   xmlns:cc="http://creativecommons.org/ns#"
   xmlns:rdf="http://www.w3.org/1999/02/22-rdf-syntax-ns#"
   xmlns:svg="http://www.w3.org/2000/svg"
   xmlns="http://www.w3.org/2000/svg"
   xmlns:sodipodi="http://sodipodi.sourceforge.net/DTD/sodipodi-0.dtd"
   xmlns:inkscape="http://www.inkscape.org/namespaces/inkscape"
   width="210mm"
   height="297mm"
   viewBox="0 0 210 297"
   version="1.1"
   id="svg8"
   inkscape:version="1.0.1 (3bc2e813f5, 2020-09-07)"
   sodipodi:docname="drawing.svg">
  <defs
     id="defs2" />
  <sodipodi:namedview
     id="base"
     pagecolor="#ffffff"
     bordercolor="#666666"
     borderopacity="1.0"
     inkscape:pageopacity="0.0"
     inkscape:pageshadow="2"
     inkscape:zoom="0.7"
     inkscape:cx="400"
     inkscape:cy="560"
     inkscape:document-units="mm"
     inkscape:current-layer="layer1"
     inkscape:document-rotation="0"
     showgrid="false"
     inkscape:window-width="1920"
     inkscape:window-height="1029"
     inkscape:window-x="0"
     inkscape:window-y="27"
     inkscape:window-maximized="1" />
  <metadata
     id="metadata5">
    <rdf:RDF>
      <cc:Work
         rdf:about="">
        <dc:format>image/svg+xml</dc:format>
        <dc:type
           rdf:resource="http://purl.org/dc/dcmitype/StillImage" />
        <dc:title></dc:title>
      </cc:Work>
    </rdf:RDF>
  </metadata>
  <g
     inkscape:label="Layer 1"
     inkscape:groupmode="layer"
     id="layer1">
    <rect
       style="fill:none;stroke:#55d400;stroke-width:0.264583"
       id="rect833"
       width="136.82739"
       height="216.95833"
       x="29.482143"
       y="38.55357" />
    <path
       style="fill:none;stroke:#000000;stroke-width:0.264583px;stroke-linecap:butt;stroke-linejoin:miter;stroke-opacity:1"
       d="m 78.241072,97.517856 46.491068,-2.645833 1.51191,45.357147 -46.491074,1.88988 c -0.353643,-9.53439 0.219593,-19.25155 -1.133928,-28.72619 -0.211317,-1.47922 0.245541,-3.06247 0,-4.53572 -0.338013,-2.02807 -2.39941,-7.67439 -1.511905,-9.449402 0.07968,-0.159369 0.251984,-0.251984 0.377976,-0.377976 0.251984,-0.503969 0.503969,-1.007937 0.755953,-1.511906 z"
       id="path1010" />
    <path
       style="fill:none;stroke:#000000;stroke-width:0.264583px;stroke-linecap:butt;stroke-linejoin:miter;stroke-opacity:1"
       d="M 77.485117,99.02976 75.973214,60.47619 119.81845,60.098214 c 0.25198,1.763889 0.51521,3.526209 0.75595,5.291667 0.51204,3.754948 1.30174,7.556296 1.51191,11.339286 0.13356,2.404136 -0.34603,5.137285 0,7.559524 0.32496,2.274757 0.50152,4.513711 0.75595,6.803571 0.0557,0.500886 -0.29292,1.101809 0,1.511905 0.57196,0.800737 1.25992,1.511904 1.88988,2.267856"
       id="path1012" />
    <path
       style="fill:none;stroke:#000000;stroke-width:0.264583px;stroke-linecap:butt;stroke-linejoin:miter;stroke-opacity:1"
       d="m 79.752975,142.11905 1.13393,37.41964 46.869045,-3.02381 -1.5119,-36.28571"
       id="path1018" />
    <path
       style="fill:none;stroke:#000000;stroke-width:0.264583px;stroke-linecap:butt;stroke-linejoin:miter;stroke-opacity:1"
       d="M 75.973214,60.47619 75.21726,39.6875"
       id="path1020" />
    <path
       style="fill:none;stroke:#000000;stroke-width:0.264583px;stroke-linecap:butt;stroke-linejoin:miter;stroke-opacity:1"
       d="m 119.81845,60.098214 -1.5119,-21.166666"
       id="path1022" />
    <path
       style="fill:none;stroke:#000000;stroke-width:0.264583px;stroke-linecap:butt;stroke-linejoin:miter;stroke-opacity:1"
       d="M 80.886905,179.53869 81.264881,254"
       id="path1024" />
    <path
       style="fill:none;stroke:#000000;stroke-width:0.264583px;stroke-linecap:butt;stroke-linejoin:miter;stroke-opacity:1"
       d="m 127.75595,176.51488 2.26786,82.02083"
       id="path1026" />
    <path
       style="fill:none;stroke:#000000;stroke-width:0.264583px;stroke-linecap:butt;stroke-linejoin:miter;stroke-opacity:1"
       d="m 80.886905,179.53869 c -3.344818,-2.18376 -5.182267,-5.08479 -7.559524,-7.9375 -3.444293,-4.13315 -7.747984,-7.33546 -10.961309,-11.71726 -0.449205,-0.61255 -3.401232,-4.98829 -3.779764,-5.66965 -0.25228,-0.4541 -0.145658,-1.04727 -0.377975,-1.5119 -0.734653,-1.46931 -1.911181,-2.68843 -2.645834,-4.15774 -2.548189,-5.09637 -4.211235,-10.78394 -5.669642,-16.25298 -1.173472,-4.40051 -2.340708,-8.65229 -2.645833,-13.22916 -0.21458,-3.21871 0,-6.60887 0,-9.82738 0,-2.70944 -0.335741,-5.62957 0,-8.31548 0.580159,-4.641288 1.902139,-9.374221 2.645833,-13.985117 1.902751,-11.797054 -0.33323,1.384329 1.511903,-9.07143 0.198274,-1.123545 0.101267,-2.294943 0.377979,-3.401785 0.977013,-3.908057 0.629335,0.255106 1.511903,-4.157736 0.09884,-0.494184 -0.22538,-1.061144 0,-1.511906 0.318738,-0.637474 1.097645,-0.931942 1.511906,-1.511906 0.579607,-0.811451 1.003347,-2.432786 1.889879,-3.023809 0.209663,-0.139774 0.530571,0.112691 0.755954,0 1.359387,-0.679694 0.277016,-0.654992 1.133927,-1.511903 0.38548,-0.38548 4.651105,-1.257271 5.669643,-1.511906 0.786913,-0.196729 1.822452,0 2.645833,0 3.045074,0 6.201622,0.200652 9.07143,-0.755952"
       id="path1030" />
    <path
       style="fill:none;stroke:#000000;stroke-width:0.264583px;stroke-linecap:butt;stroke-linejoin:miter;stroke-opacity:1"
       d="m 127.75595,176.51488 c 0,-1.13393 -0.37739,-2.3325 0,-3.40179 0.41933,-1.18809 1.62462,-1.94046 2.26786,-3.02381 1.7557,-2.95696 3.2436,-6.06527 4.91369,-9.07142 3.78721,-6.81698 7.98929,-13.37714 10.58333,-20.7887 1.62547,-4.64419 1.19902,-9.52707 1.88988,-14.36309 0.62423,-4.36958 1.92123,-8.50355 2.64584,-12.85119 0.67327,-4.03963 0.80212,-11.25558 0.37797,-15.497024 -0.55402,-5.540232 -3.82965,-10.128623 -6.04762,-15.119048 -0.52626,-1.184082 -1.53332,-3.759427 -2.26785,-4.913691 -1.59446,-2.505569 -8.27216,-10.30247 -10.96131,-12.095236 -0.3746,-0.24973 -1.53512,-0.0232 -1.88988,-0.377976 -0.86865,-0.868643 0.098,-0.755954 -0.75596,-0.755954 -0.25198,0 -0.53057,0.112691 -0.75595,0 -0.31874,-0.159369 -0.43721,-0.596583 -0.75595,-0.755952 -0.45076,-0.225382 -1.02298,0.12223 -1.51191,0 -1.13715,-0.284289 -1.25234,-1.382122 -2.26785,-1.889881 -0.45077,-0.225381 -1.09258,0.27955 -1.51191,0 -0.65674,-0.437828 -1.32839,-0.950421 -1.88988,-1.511904"
       id="path1032" />
    <ellipse
       style="fill:#800080;fill-opacity:1;stroke:#55d400;stroke-width:0.264583"
       id="path1034"
       cx="82.020836"
       cy="180.10567"
       rx="4.5357141"
       ry="3.2127981" />
    <ellipse
       style="fill:#800080;fill-opacity:1;stroke:#55d400;stroke-width:0.264583"
       id="path1034-1"
       cx="128.13393"
       cy="176.89287"
       rx="4.5357141"
       ry="3.2127981" />
    <ellipse
       style="fill:#800080;fill-opacity:1;stroke:#55d400;stroke-width:0.264583"
       id="path1034-1-2"
       cx="126.62202"
       cy="140.98511"
       rx="4.5357141"
       ry="3.2127981" />
    <ellipse
       style="fill:#800080;fill-opacity:1;stroke:#55d400;stroke-width:0.264583"
       id="path1034-1-2-7"
       cx="80.130951"
       cy="141.3631"
       rx="4.5357141"
       ry="3.2127981" />
    <ellipse
       style="fill:#800080;fill-opacity:1;stroke:#55d400;stroke-width:0.264583"
       id="path1034-1-2-7-0"
       cx="77.10714"
       cy="97.139885"
       rx="4.5357141"
       ry="3.2127981" />
    <ellipse
       style="fill:#800080;fill-opacity:1;stroke:#55d400;stroke-width:0.264583"
       id="path1034-1-2-7-0-9"
       cx="124.35416"
       cy="96.383926"
       rx="4.5357141"
       ry="3.2127981" />
    <ellipse
       style="fill:#800080;fill-opacity:1;stroke:#55d400;stroke-width:0.264583"
       id="path1034-1-2-7-0-9-3"
       cx="119.81844"
       cy="60.854172"
       rx="4.5357141"
       ry="3.2127981" />
    <ellipse
       style="fill:#800080;fill-opacity:1;stroke:#55d400;stroke-width:0.264583"
       id="path1034-1-2-7-0-9-6"
       cx="77.107147"
       cy="60.854164"
       rx="4.5357141"
       ry="3.2127981" />
  </g>
</svg>
