<?xml version="1.0" encoding="UTF-8" standalone="no"?>
<svg
   xmlns:dc="http://purl.org/dc/elements/1.1/"
   xmlns:cc="http://creativecommons.org/ns#"
   xmlns:rdf="http://www.w3.org/1999/02/22-rdf-syntax-ns#"
   xmlns:svg="http://www.w3.org/2000/svg"
   xmlns="http://www.w3.org/2000/svg"
   xmlns:sodipodi="http://sodipodi.sourceforge.net/DTD/sodipodi-0.dtd"
   xmlns:inkscape="http://www.inkscape.org/namespaces/inkscape"
   width="240mm"
   height="120mm"
   viewBox="0 0 240 120"
   version="1.1"
   id="svg8"
   inkscape:version="1.0.1 (3bc2e813f5, 2020-09-07)"
   sodipodi:docname=".svg">
  <defs
     id="defs2">
    <inkscape:perspective
       sodipodi:type="inkscape:persp3d"
       inkscape:vp_x="0 : 60 : 1"
       inkscape:vp_y="0 : 1000 : 0"
       inkscape:vp_z="240 : 60 : 1"
       inkscape:persp3d-origin="120 : 40 : 1"
       id="perspective8" />
  </defs>
  <sodipodi:namedview
     id="base"
     pagecolor="#ffffff"
     bordercolor="#666666"
     borderopacity="1.0"
     inkscape:pageopacity="0.0"
     inkscape:pageshadow="2"
     inkscape:zoom="1.406257"
     inkscape:cx="203.56474"
     inkscape:cy="223.40345"
     inkscape:document-units="mm"
     inkscape:current-layer="layer1"
     showgrid="false"
     showborder="true"
     width="200mm"
     showguides="true"
     inkscape:guide-bbox="true"
     inkscape:window-width="1920"
     inkscape:window-height="1029"
     inkscape:window-x="0"
     inkscape:window-y="27"
     inkscape:window-maximized="1"
     inkscape:document-rotation="0">
    <inkscape:grid
       type="xygrid"
       id="grid815"
       units="mm"
       spacingx="10"
       spacingy="10"
       empspacing="4"
       dotted="false" />
  </sodipodi:namedview>
  <metadata
     id="metadata5">
    <rdf:RDF>
      <cc:Work
         rdf:about="">
        <dc:format>image/svg+xml</dc:format>
        <dc:type
           rdf:resource="http://purl.org/dc/dcmitype/StillImage" />
        <dc:title />
      </cc:Work>
    </rdf:RDF>
  </metadata>
  <g
     inkscape:label="Layer 1"
     inkscape:groupmode="layer"
     id="layer1"
     transform="translate(0,-177)">
    <ellipse
       style="fill:none;fill-rule:evenodd;stroke:#000000;stroke-width:0.264583;stroke-opacity:1"
       id="path30"
       cx="35.936115"
       cy="210.39613"
       rx="1.6933249"
       ry="1.5992512" />
    <ellipse
       style="fill:none;fill-rule:evenodd;stroke:#000000;stroke-width:0.264583;stroke-opacity:1"
       id="path30-3"
       cx="47.224953"
       cy="199.95396"
       rx="1.6933249"
       ry="1.5992513" />
    <ellipse
       style="fill:none;fill-rule:evenodd;stroke:#000000;stroke-width:0.264583;stroke-opacity:1"
       id="path30-3-6"
       cx="60.395252"
       cy="199.38951"
       rx="1.6933249"
       ry="1.5992514" />
    <ellipse
       style="fill:none;fill-rule:evenodd;stroke:#000000;stroke-width:0.264583;stroke-opacity:1"
       id="path30-3-6-7"
       cx="67.732994"
       cy="210.8665"
       rx="1.6933249"
       ry="1.5992515" />
    <ellipse
       style="fill:none;fill-rule:evenodd;stroke:#000000;stroke-width:0.264583;stroke-opacity:1"
       id="path30-3-6-5"
       cx="67.732994"
       cy="222.34348"
       rx="1.6933249"
       ry="1.5992515" />
    <ellipse
       style="fill:none;fill-rule:evenodd;stroke:#000000;stroke-width:0.264583;stroke-opacity:1"
       id="path30-3-6-5-3"
       cx="56.820457"
       cy="231.75084"
       rx="1.6933249"
       ry="1.5992515" />
    <ellipse
       style="fill:none;fill-rule:evenodd;stroke:#000000;stroke-width:0.264583;stroke-opacity:1"
       id="path30-3-6-5-3-5"
       cx="43.462006"
       cy="232.12714"
       rx="1.6933249"
       ry="1.5992515" />
    <ellipse
       style="fill:none;fill-rule:evenodd;stroke:#000000;stroke-width:0.264583;stroke-opacity:1"
       id="path30-3-6-5-3-5-6"
       cx="37.064999"
       cy="222.34348"
       rx="1.6933249"
       ry="1.5992515" />
    <path
       style="fill:none;stroke:#000000;stroke-width:0.264583px;stroke-linecap:butt;stroke-linejoin:miter;stroke-opacity:1"
       d="m 36.124263,209.92576 0.376296,11.85328 6.773299,9.78365 12.982157,0.37629 10.724391,-9.40736 0.752589,-11.28883 -6.020711,-11.28883 H 46.848655 Z"
       id="path962" />
    <path
       style="fill:none;stroke:#000000;stroke-width:0.264583px;stroke-linecap:butt;stroke-linejoin:miter;stroke-opacity:1"
       d="m 36.124263,209.92576 31.608731,1.31703"
       id="path966" />
    <path
       style="fill:none;stroke:#000000;stroke-width:0.264583px;stroke-linecap:butt;stroke-linejoin:miter;stroke-opacity:1"
       d="m 36.500559,221.77904 30.479846,0.75258"
       id="path968" />
    <path
       style="fill:none;stroke:#000000;stroke-width:0.264583px;stroke-linecap:butt;stroke-linejoin:miter;stroke-opacity:1"
       d="M 36.500559,221.77904 67.732994,211.24279"
       id="path970" />
    <path
       style="fill:none;stroke:#000000;stroke-width:0.264583px;stroke-linecap:butt;stroke-linejoin:miter;stroke-opacity:1"
       d="m 56.256015,231.93898 c 0.665305,0.79034 1.205126,1.84077 2.069618,2.44592 2.794145,1.9559 7.568877,0.66316 10.72439,0.37629 0.999332,-0.0908 2.00845,0.0557 3.010356,0 1.578057,-0.0877 4.459594,-0.67092 5.832564,-1.31703 0.535345,-0.25193 0.989502,-0.65067 1.505178,-0.94073 1.687415,-0.94918 1.575123,-0.50392 3.010355,-2.06962 0.663265,-0.72357 0.5486,-1.25367 0.752589,-2.06962 0.117652,-0.47061 0.480631,-0.81418 0.564441,-1.31703 0.07217,-0.43304 -0.06208,-0.88244 0,-1.31703 0.2502,-1.7514 0.346138,-3.72558 0,-5.45627 -0.204653,-1.02327 -0.05807,-2.15792 -0.188146,-3.19851 -0.200784,-1.60625 -0.623583,-3.11791 -0.940736,-4.70368 -0.11108,-0.55539 -0.5397,-1.18238 -0.752589,-1.69332 -0.65002,-1.56005 -1.068459,-3.02501 -1.881473,-4.51553 -0.374216,-0.68607 -0.451549,-1.3672 -0.752589,-2.06962 -0.475321,-1.10909 -1.028001,-2.38867 -1.693325,-3.38665 -0.733685,-1.10053 -1.724816,-1.91297 -2.63406,-2.82221 -0.660577,-0.66058 -1.232447,-1.4206 -1.881473,-2.06962 -0.833181,-0.83318 -2.508062,-0.78834 -3.574796,-0.94074 -1.309621,-0.18708 -0.203853,-0.21726 -1.317029,-0.37629 -0.802273,-0.11461 -3.193675,-0.18935 -3.951092,0 -0.592998,0.14825 -0.992082,0.87233 -1.505178,1.12888 -0.112191,0.0561 -0.264107,-0.0561 -0.376295,0 -0.57803,0.28902 0.311187,0.10612 -0.376293,0.56445 -0.104365,0.0696 -0.271931,-0.0696 -0.376296,0 -0.116684,0.0778 -0.110358,0.25961 -0.188148,0.37629 -0.149077,0.22362 -1.885569,1.53912 -1.505178,1.88147 0.59698,0.53728 1.254316,1.00345 1.881474,1.50518"
       id="path972" />
    <path
       style="fill:none;stroke:#000000;stroke-width:0.264583px;stroke-linecap:butt;stroke-linejoin:miter;stroke-opacity:1"
       d="m 61.712284,199.95396 c -0.501727,-0.18815 -1.025906,-0.32481 -1.505178,-0.56444 -0.09047,-0.0452 0,-1.17441 0,-1.31703 0,-1.77172 -0.134813,-3.44838 0.564441,-5.07998 0.558313,-1.30273 1.289783,-2.51955 2.445914,-3.38665 0.393203,-0.2949 0.923827,-0.45768 1.31703,-0.75259 0.141909,-0.10643 0.211595,-0.31039 0.376296,-0.37629 0.174688,-0.0699 0.389749,0.0699 0.564441,0 0.1647,-0.0659 0.224186,-0.28499 0.376295,-0.37629 0.691446,-0.41487 3.498062,-1.21337 4.327385,-1.31704 1.498841,-0.18735 3.194161,0 4.70368,0 1.589408,0 3.156085,-0.0329 4.703681,0.18815 1.070612,0.15295 2.151726,-0.20439 3.198503,0.18815 1.11338,0.41752 2.115325,1.32376 3.010355,2.06962 2.644354,2.20363 4.051879,8.79586 4.515532,12.04142 0.241189,1.68833 0.785948,3.37729 0.940737,5.07997 0.06246,0.68705 -0.06865,1.38317 0,2.06962 0.581213,5.81214 0.342932,11.66784 0,17.49769 -0.05859,0.99597 0.09034,2.0166 0,3.01036 -0.114784,1.26262 -0.262001,2.5057 -0.376296,3.76294 -0.102388,1.12632 0.03461,2.27288 -0.188148,3.38665 -0.0428,0.21399 -1.307735,3.9418 -1.505177,4.13924 -0.961504,0.96151 0.262416,-0.7889 -0.752589,0.56444 -0.38677,0.5157 -0.468416,1.22101 -0.940737,1.69333 -0.373006,0.373 -1.900152,0.856 -2.445911,1.12888 -0.52497,0.26248 -1.126551,0.7788 -1.693325,0.94074 -1.113311,0.31809 -2.249782,0.59018 -3.386651,0.75258 -1.579846,0.2257 -3.327191,-0.31292 -4.891826,0 -0.474923,0.095 -0.394737,0.20659 -0.564443,0.3763 -0.05478,0.0548 -5.786004,0 -6.397003,0 -1.307656,0 -2.268808,0.82201 -3.574799,0.94074 -1.373918,0.1249 -2.957325,0.0856 -4.327385,0 -1.388575,-0.0868 -2.83106,-0.27689 -4.139239,-0.75259 -0.580491,-0.21109 -1.107342,-0.55726 -1.693326,-0.75259 -1.19957,-0.39986 -2.315768,-0.79126 -3.386648,-1.50518 -0.59591,-0.39727 -1.509739,-0.38086 -2.069618,-0.94073 -1.667402,-1.66741 -3.695983,-5.15228 -4.515535,-7.33775 -0.225365,-0.60097 -0.8352,-1.24826 -0.940734,-1.88147 -0.103618,-0.62171 -0.125438,-1.25431 -0.188148,-1.88147 -0.376294,0.18815 -0.725916,0.44355 -1.128883,0.56444 -0.970269,0.29108 -2.575224,0 -3.574797,0 -3.585278,0 -7.405786,-0.3496 -10.912538,-1.12888 -0.387204,-0.0861 -0.74168,-0.29025 -1.128884,-0.3763 -0.183667,-0.0408 -0.391507,0.0741 -0.564441,0 -1.62532,-0.69656 -2.518469,-2.80357 -3.38665,-4.13923 -3.023948,-4.65223 -0.132942,0.36902 -2.634061,-3.9511 -1.806182,-3.11976 -2.472113,-5.0768 -3.198502,-8.46662 -0.231158,-1.07874 0,-2.46472 0,-3.5748 0,-1.17688 -0.09769,-2.40254 0,-3.57479 0.304025,-3.64831 2.440469,-9.28794 4.891827,-12.22957 0.731381,-0.87766 1.915733,-1.70475 3.010355,-2.06962 0.0595,-0.0198 0.125432,0 0.188147,0 0.188148,-0.0627 0.387055,-0.0995 0.564442,-0.18815 3.00765,-1.50382 5.847888,-1.79865 9.219213,-1.31703 0.866188,0.12374 1.610605,0.73191 2.445914,0.94074 0.525742,0.13143 1.016739,0.01 1.505178,0.37629 0.683788,0.51284 1.38752,0.9936 2.069619,1.50518 0.739233,0.55442 1.360861,1.29084 2.069619,1.88147 0.438226,0.36519 2.053612,1.68532 2.445914,1.88147 0.400511,0.20026 0.566492,0.1902 0.940736,0.56444 0.143287,0.14329 0.940736,0.72545 0.940736,0.94074 0,0.25858 -0.125431,0.50173 -0.188147,0.75259"
       id="path974" />
  </g>
</svg>
