<?xml version="1.0" encoding="UTF-8" standalone="no"?>
<svg
   xmlns:dc="http://purl.org/dc/elements/1.1/"
   xmlns:cc="http://creativecommons.org/ns#"
   xmlns:rdf="http://www.w3.org/1999/02/22-rdf-syntax-ns#"
   xmlns:svg="http://www.w3.org/2000/svg"
   xmlns="http://www.w3.org/2000/svg"
   xmlns:sodipodi="http://sodipodi.sourceforge.net/DTD/sodipodi-0.dtd"
   xmlns:inkscape="http://www.inkscape.org/namespaces/inkscape"
   width="240mm"
   height="120mm"
   viewBox="0 0 240 120"
   version="1.1"
   id="svg8"
   inkscape:version="1.0.2 (e86c870879, 2021-01-15)"
   sodipodi:docname="ha.svg">
  <defs
     id="defs2" />
  <sodipodi:namedview
     id="base"
     pagecolor="#ffffff"
     bordercolor="#666666"
     borderopacity="1.0"
     inkscape:pageopacity="0.0"
     inkscape:pageshadow="2"
     inkscape:zoom="0.99437388"
     inkscape:cx="284.27627"
     inkscape:cy="182.72055"
     inkscape:document-units="mm"
     inkscape:current-layer="layer1"
     showgrid="false"
     showborder="true"
     width="200mm"
     showguides="true"
     inkscape:guide-bbox="true"
     inkscape:window-width="1920"
     inkscape:window-height="1029"
     inkscape:window-x="0"
     inkscape:window-y="27"
     inkscape:window-maximized="1"
     inkscape:document-rotation="0">
    <inkscape:grid
       type="xygrid"
       id="grid815"
       units="mm"
       spacingx="10"
       spacingy="10"
       empspacing="4"
       dotted="false" />
  </sodipodi:namedview>
  <metadata
     id="metadata5">
    <rdf:RDF>
      <cc:Work
         rdf:about="">
        <dc:format>image/svg+xml</dc:format>
        <dc:type
           rdf:resource="http://purl.org/dc/dcmitype/StillImage" />
        <dc:title />
      </cc:Work>
    </rdf:RDF>
  </metadata>
  <g
     inkscape:label="Layer 1"
     inkscape:groupmode="layer"
     id="layer1"
     transform="translate(0,-177)">
    <path
       style="fill:none;stroke:#000000;stroke-width:0.264583px;stroke-linecap:butt;stroke-linejoin:miter;stroke-opacity:1"
       d="m 63.593199,241.9236 c -1.134708,-3.0784 -0.744768,-6.45594 -1.596483,-9.57889 -0.624634,-2.29033 -4.789924,-7.75488 -7.450248,-2.92688 -3.522033,6.39183 -5.055526,21.12673 -5.055526,27.40627 0,4.59237 -0.181243,13.00016 5.853766,15.16658 6.317665,2.26788 10.797574,-3.61787 13.836178,-7.98241 9.464286,-13.59416 10.643214,-27.62792 10.643214,-43.63718 0,-2.43628 -0.574606,-6.60693 -3.459046,-7.71632 -2.319364,-0.89207 -5.548323,-1.86543 -7.450248,-0.26609 -6.069283,5.10372 -5.420479,25.47582 -4.257286,29.26884 2.354765,7.67858 5.836491,15.90612 12.239696,20.75427 14.859248,11.25057 35.380854,9.5125 48.958784,-2.66081 2.86736,-2.57073 8.24346,-15.96148 6.91809,-22.88291 -0.47475,-2.47921 -0.40756,-5.62755 -2.39473,-7.18417 -3.82494,-2.9962 -8.78972,-4.45244 -13.5701,-5.3216 -11.7125,-2.12955 -10.58638,14.14387 -6.652,19.95602 2.18987,3.23505 5.53276,5.74347 9.04673,7.45025 2.37881,1.15543 10.61908,3.05624 13.83618,0 3.54627,-3.36896 -2.01241,-12.49823 -4.78945,-14.63441 -0.85524,-0.65789 -2.12343,-0.38956 -3.19296,-0.53217 -0.26375,-0.0352 -0.79825,-0.26608 -0.79825,0 0,4.26559 -0.69018,8.77438 0.79825,12.77186 1.73421,4.65762 4.73456,9.01286 8.51457,12.2397 3.74128,3.19378 8.57084,5.04635 13.30401,6.38592 13.30443,3.76541 27.06317,1.07765 38.84773,-6.65201 2.236,-1.46662 1.88653,-5.5398 0.79824,-7.98241 -3.09355,-6.94331 -7.03711,-13.90247 -12.77186,-18.8917 -3.29875,-2.86992 -29.13485,-9.71783 -23.68114,4.25729 2.27594,5.8321 12.1803,7.31517 17.29522,5.85376 2.54366,-0.72676 4.30734,-2.33148 3.19296,-5.05552 -3.08506,-7.54126 -18.72906,-8.59157 -17.82738,4.25728 0.54036,7.70012 14.221,7.74623 17.5613,7.98241 6.04827,0.42766 23.27841,2.52106 23.94723,-8.51457 0.0817,-1.34846 -0.524,-2.90365 -1.59648,-3.72512 -6.38505,-4.89068 -12.24317,-7.68227 -20.22211,-5.85377 -3.73087,0.85499 -4.6785,3.98716 -1.86256,6.38593 1.57041,1.33776 3.56094,2.27598 5.58769,2.6608 5.07267,0.96317 10.27173,1.17401 15.43266,1.3304 0.75745,0.023 1.94485,-0.0631 2.12864,-0.79824 0.16801,-0.67203 -0.95102,-1.07892 -1.59648,-1.3304 -6.22074,-2.42366 -12.34515,-5.3427 -18.8917,-6.65201 -7.78156,-1.55631 -29.78177,-0.59622 -29.53492,12.2397 0.22699,11.80365 22.96621,10.56694 28.47059,10.37713 8.39618,-0.28952 16.19924,0.71269 21.28643,-6.91809 2.51043,-3.76564 -3.71044,-9.02114 -5.32161,-10.11105 -11.42784,-7.7306 -18.09307,-8.10404 -32.4618,-8.51457 -5.86211,-0.16749 -11.9758,-0.72304 -17.5613,1.06432 -4.30289,1.37692 -12.89781,7.99415 -9.04673,14.36834 1.6695,2.76331 4.75364,4.57095 7.71633,5.85376 10.52728,4.55821 22.54516,7.03125 34.05828,5.85377 7.72211,-0.78976 9.41412,-2.97954 6.91809,-10.11105 -0.51837,-1.48105 -1.94322,-2.51017 -3.19296,-3.45904 -3.56573,-2.70731 -7.10545,-5.58487 -11.17538,-7.45025 -10.72842,-4.9172 -18.7303,-4.83816 -30.33315,-5.32161 -3.1902,-0.13293 -6.40546,-0.3526 -9.5789,0 -1.80782,0.20087 -3.63,2.12864 -1.3304,2.12864"
       id="path831" />
  </g>
</svg>
