<?xml version="1.0" encoding="UTF-8" standalone="no"?>
<svg
   xmlns:dc="http://purl.org/dc/elements/1.1/"
   xmlns:cc="http://creativecommons.org/ns#"
   xmlns:rdf="http://www.w3.org/1999/02/22-rdf-syntax-ns#"
   xmlns:svg="http://www.w3.org/2000/svg"
   xmlns="http://www.w3.org/2000/svg"
   xmlns:sodipodi="http://sodipodi.sourceforge.net/DTD/sodipodi-0.dtd"
   xmlns:inkscape="http://www.inkscape.org/namespaces/inkscape"
   width="240mm"
   height="120mm"
   viewBox="0 0 240 120"
   version="1.1"
   id="svg8"
   inkscape:version="1.0.2 (e86c870879, 2021-01-15)"
   sodipodi:docname="hello.svg">
  <defs
     id="defs2" />
  <sodipodi:namedview
     id="base"
     pagecolor="#ffffff"
     bordercolor="#666666"
     borderopacity="1.0"
     inkscape:pageopacity="0.0"
     inkscape:pageshadow="2"
     inkscape:zoom="0.99437388"
     inkscape:cx="284.27627"
     inkscape:cy="182.72055"
     inkscape:document-units="mm"
     inkscape:current-layer="layer1"
     showgrid="false"
     showborder="true"
     width="200mm"
     showguides="true"
     inkscape:guide-bbox="true"
     inkscape:window-width="1920"
     inkscape:window-height="1029"
     inkscape:window-x="0"
     inkscape:window-y="27"
     inkscape:window-maximized="1"
     inkscape:document-rotation="0">
    <inkscape:grid
       type="xygrid"
       id="grid815"
       units="mm"
       spacingx="10"
       spacingy="10"
       empspacing="4"
       dotted="false" />
  </sodipodi:namedview>
  <metadata
     id="metadata5">
    <rdf:RDF>
      <cc:Work
         rdf:about="">
        <dc:format>image/svg+xml</dc:format>
        <dc:type
           rdf:resource="http://purl.org/dc/dcmitype/StillImage" />
        <dc:title />
      </cc:Work>
    </rdf:RDF>
  </metadata>
  <g
     inkscape:label="Layer 1"
     inkscape:groupmode="layer"
     id="layer1"
     transform="translate(0,-177)">
    <path
       style="fill:none;stroke:#000000;stroke-width:0.264583px;stroke-linecap:butt;stroke-linejoin:miter;stroke-opacity:1"
       d="m 53.482147,217.71029 c 1.275596,-2.82331 2.489917,-5.67359 3.725124,-8.51457 0.557345,-1.2819 2.405965,-7.03127 3.991205,-7.98241 0.107556,-0.0645 0.23813,0.1438 0.266081,0.26608 0.686038,3.00142 1.390462,6.00432 1.862561,9.04673 0.327533,2.11076 0.167881,4.2812 0.532162,6.38593 1.238784,7.15742 4.142441,18.38704 12.771855,19.95602 4.253754,0.77341 4.984461,-0.42859 7.98241,-2.92688 1.544754,-1.2873 3.003812,-2.67426 4.523364,-3.99121 13.955901,-12.0951 1.052553,-0.50673 19.157791,-17.29521 0.96682,-0.89652 1.99454,-1.72847 2.92688,-2.66081 0.0627,-0.0627 0,-0.35477 0,-0.26608 0,6.9591 -2.58023,15.79056 1.06432,22.35075 0.46591,0.83864 1.50762,1.2312 2.39472,1.59648 4.32068,1.77911 10.37389,-5.78576 12.50578,-8.51457 0.98438,-1.26001 1.7617,-2.669 2.6608,-3.99121 0.63869,-0.93924 1.32549,-3.46395 2.12864,-2.6608 0.88745,0.88745 0.585,1.61186 0.79825,2.92689 0.41779,2.5764 0.56639,5.22058 1.3304,7.71633 1.08299,3.53777 3.40554,7.09885 6.65201,9.04673 4.40795,2.64477 12.10487,0.87784 15.96481,-1.59649 5.55285,-3.55951 1.77653,-3.63908 4.78945,-6.65201 0.0627,-0.0627 0,0.17739 0,0.26609 0,0.44346 0,0.88693 0,1.3304 0,2.83819 -0.13085,5.6794 0,8.51457 0.16935,3.66921 -0.38906,12.84427 5.58769,13.30401 0.61902,0.0476 1.34598,0.34439 1.86256,0 2.24484,-1.49655 5.43387,-5.83853 6.91809,-7.98241 4.04457,-5.84215 8.50892,-11.65673 9.31281,-18.8917"
       id="path831" />
  </g>
</svg>
