<?xml version="1.0" encoding="UTF-8" standalone="no"?>
<svg
   xmlns:osb="http://www.openswatchbook.org/uri/2009/osb"
   xmlns:dc="http://purl.org/dc/elements/1.1/"
   xmlns:cc="http://creativecommons.org/ns#"
   xmlns:rdf="http://www.w3.org/1999/02/22-rdf-syntax-ns#"
   xmlns:svg="http://www.w3.org/2000/svg"
   xmlns="http://www.w3.org/2000/svg"
   xmlns:sodipodi="http://sodipodi.sourceforge.net/DTD/sodipodi-0.dtd"
   xmlns:inkscape="http://www.inkscape.org/namespaces/inkscape"
   width="240mm"
   height="120mm"
   viewBox="0 0 240 120"
   version="1.1"
   id="svg8"
   inkscape:version="1.0.2 (e86c870879, 2021-01-15)"
   sodipodi:docname="rozdeleni.svg">
  <defs
     id="defs2">
    <linearGradient
       id="linearGradient2769"
       osb:paint="solid">
      <stop
         style="stop-color:#55d400;stop-opacity:1;"
         offset="0"
         id="stop2767" />
    </linearGradient>
  </defs>
  <sodipodi:namedview
     id="base"
     pagecolor="#ffffff"
     bordercolor="#666666"
     borderopacity="1.0"
     inkscape:pageopacity="0.0"
     inkscape:pageshadow="2"
     inkscape:zoom="0.99437388"
     inkscape:cx="284.27627"
     inkscape:cy="182.72055"
     inkscape:document-units="mm"
     inkscape:current-layer="layer1"
     showgrid="false"
     showborder="true"
     width="200mm"
     showguides="true"
     inkscape:guide-bbox="true"
     inkscape:window-width="1920"
     inkscape:window-height="1029"
     inkscape:window-x="0"
     inkscape:window-y="27"
     inkscape:window-maximized="1"
     inkscape:document-rotation="0"
     inkscape:object-paths="false"
     inkscape:snap-bbox="true"
     inkscape:snap-global="false">
    <inkscape:grid
       type="xygrid"
       id="grid815"
       units="mm"
       spacingx="10"
       spacingy="10"
       empspacing="4"
       dotted="false" />
  </sodipodi:namedview>
  <metadata
     id="metadata5">
    <rdf:RDF>
      <cc:Work
         rdf:about="">
        <dc:format>image/svg+xml</dc:format>
        <dc:type
           rdf:resource="http://purl.org/dc/dcmitype/StillImage" />
        <dc:title />
      </cc:Work>
    </rdf:RDF>
  </metadata>
  <g
     inkscape:label="Layer 1"
     inkscape:groupmode="layer"
     id="layer1"
     transform="translate(0,-177)">
    <rect
       style="fill:none;stroke:none;stroke-width:0.365;stroke-opacity:1;stroke-miterlimit:4;stroke-dasharray:none"
       id="rect833"
       width="106.43213"
       height="63.061035"
       x="49.490944"
       y="205.73668" />
    <path
       style="fill:none;stroke:#000000;stroke-width:0.264583px;stroke-linecap:butt;stroke-linejoin:miter;stroke-opacity:1"
       d="m 58.537673,203.07587 0.266081,55.34471 54.812546,-0.79824 -0.26608,-56.40903 -54.812547,0.79824 z"
       id="path2775" />
    <path
       style="fill:none;stroke:#000000;stroke-width:0.264583px;stroke-linecap:butt;stroke-linejoin:miter;stroke-opacity:1"
       d="m 58.803754,219.83893 54.280386,-0.79824"
       id="path2777" />
    <path
       style="fill:none;stroke:#000000;stroke-width:0.264583px;stroke-linecap:butt;stroke-linejoin:miter;stroke-opacity:1"
       d="m 58.803754,239.2628 54.546466,-0.53216"
       id="path2779" />
    <path
       style="fill:none;stroke:#000000;stroke-width:0.264583px;stroke-linecap:butt;stroke-linejoin:miter;stroke-opacity:1"
       d="m 73.43817,201.74547 0.266081,56.40903"
       id="path2781" />
    <path
       style="fill:none;stroke:#000000;stroke-width:0.264583px;stroke-linecap:butt;stroke-linejoin:miter;stroke-opacity:1"
       d="m 94.724597,201.47939 0.266081,55.87687"
       id="path2783" />
    <path
       style="fill:none;stroke:#d40000;stroke-width:1.565;stroke-linecap:butt;stroke-linejoin:miter;stroke-opacity:1;stroke-miterlimit:4;stroke-dasharray:none"
       d="m 113.35022,200.94723 c 0,-0.35477 0.35477,-1.06432 0,-1.06432 -0.35477,0 0.0295,0.71077 0,1.06432 -0.0887,0.70955 -0.17739,1.41909 -0.26608,2.12864 -0.0887,0.17739 -0.22718,0.33769 -0.26608,0.53216 -0.31314,1.56572 0,3.6952 0,5.32161 0,3.05658 0.32207,6.37206 -0.26608,9.31281 -0.29146,1.45728 0.13062,3.35262 0,4.78945 -0.0254,0.27932 -0.22642,0.52058 -0.26608,0.79824 -0.24016,1.6811 0,3.61175 0,5.32161 0,2.74086 -0.38416,5.82546 0,8.51456 0.49789,3.4852 0.53216,7.08288 0.53216,10.64322 0,2.41269 0.0701,4.83093 -0.26608,7.18417 -0.20428,1.42993 0.0949,3.00317 -0.53216,4.25728 -0.17317,0.34635 0.26159,1.33489 0,1.59648 -0.17225,0.17226 -1.96573,0.0326 -2.12864,0 -0.94792,-0.18958 -0.88293,-0.35076 -1.33041,-0.79824 -0.28033,-0.28033 -1.61222,-0.0157 -1.86256,-0.26608 -0.0627,-0.0627 0.0627,-0.20336 0,-0.26608 -0.25015,-0.25015 -5.65217,-0.16528 -6.38593,-0.53216 -0.493014,-0.24651 -1.106337,-0.47148 -1.596478,-0.79824 -0.314441,-0.20963 -0.37244,-0.63852 -0.532161,-0.79824 -0.133038,-0.13304 -0.6652,0.13304 -0.79824,0 -0.06272,-0.0627 0.06272,-0.20336 0,-0.26608 -0.31532,-0.31532 -0.869588,-0.60351 -1.064321,-0.79824 -0.768692,-0.76869 -0.532162,-6.68074 -0.532162,-8.24849 0,-3.54774 0,-7.09548 0,-10.64321 0,-2.38833 0.196879,-4.86939 -0.266081,-7.18417 -0.446521,-2.23262 -0.07694,-4.48812 -0.79824,-6.65201 -0.220996,-0.66299 -0.05687,-1.50101 -0.266081,-2.12865 -0.141039,-0.42312 -0.596098,-0.66003 -0.79824,-1.06432 -0.384878,-0.76975 -0.962887,-1.80326 -1.330401,-2.6608 -0.144053,-0.33612 0.0382,-0.86147 -0.266081,-1.06432 -1.226931,-0.81795 -9.621089,-0.26608 -10.909292,-0.26608 -0.572672,0 -9.121235,-0.62795 -9.312812,-0.53216 -0.141097,0.0705 0.403651,0.42177 0.532159,1.06432 0.285276,1.42637 0.140891,3.64663 0,5.05553 -0.399113,3.99115 -0.631539,9.01789 -0.266078,13.03793 0.107037,1.17742 0.576389,2.3498 0.79824,3.45905 0.168285,0.84142 -0.06131,1.8025 0,2.6608 0.0938,1.31321 0.02896,3.89888 0.266081,5.32161 0.124502,0.74702 0.266078,1.32137 0.266078,2.12864 0,1.17852 0.230285,2.5737 0,3.72512 -0.257061,1.28532 -1.085636,6.22276 -2.128642,6.91809 -0.252386,0.16826 -1.982451,0.0487 -2.128642,0 -0.874604,-0.58307 -0.632565,-0.52283 -1.596482,-0.79824 -1.164974,-0.33285 -2.333384,-0.42302 -3.459044,-0.79824 -0.374486,-0.12483 -0.978662,0.17587 -1.330401,0 -0.544288,-0.27214 -0.970992,-0.85582 -1.596483,-1.06432 -0.168283,-0.0561 -0.406731,0.12543 -0.532162,0 -0.380907,-0.38091 -0.604599,-2.24914 -0.79824,-2.92688 0.02418,-0.4811 -0.390252,-0.90468 -0.532161,-1.33041 -0.222634,-0.6679 -0.202208,-2.51171 -0.266079,-2.92688 -0.187356,-1.21781 -0.503975,-2.28198 -0.798242,-3.45904 -0.269055,-1.07622 0.138126,-2.35405 0,-3.45905 -0.551297,-4.41037 -0.532159,-8.83933 -0.532159,-13.30402 0,-1.65982 -0.126889,-3.40597 0,-5.05552 0.08239,-1.07111 0.426151,-2.13288 0.532159,-3.19296 0.210539,-2.1054 -0.103484,-4.74508 0.532162,-6.65201 0.2423,-0.7269 0.286654,-3.97063 -0.266081,-4.52337 -0.52805,-0.52805 -0.0841,1.26009 -0.532162,-0.53216 -0.396401,-1.58561 0,-3.93745 0,-5.58769 0,-0.52707 -0.376235,-1.64225 -0.266078,-1.86256 0.07349,-0.14698 6.727158,-0.76642 6.918087,-0.79824 5.610645,-0.93511 14.752663,-1.35152 20.488184,-0.53216 1.194181,0.1706 2.527443,-0.0798 3.725127,0 2.759633,0.18398 5.495965,0.34866 8.248489,0.53216 3.53956,0.23597 7.07875,0.26608 10.64321,0.26608 1.16376,0 2.54149,0.66063 3.72513,0.26608 0.67837,-0.22612 1.24939,-0.69642 1.86256,-1.06432 z"
       id="path2793" />
  </g>
</svg>
